<svg xmlns="http://www.w3.org/2000/svg" viewBox="0 0 512 512" width="1024" height="1024" fill="none">
  <defs>
    <linearGradient id="g1" x1="0%" y1="0%" x2="100%" y2="100%">
      <stop offset="0%" stop-color="#F59E0B"/>
      <stop offset="100%" stop-color="#D97706"/>
    </linearGradient>
    <linearGradient id="g2" x1="0%" y1="0%" x2="100%" y2="100%">
      <stop offset="0%" stop-color="#FBBF24"/>
      <stop offset="100%" stop-color="#F59E0B"/>
    </linearGradient>
    <linearGradient id="g3" x1="0%" y1="0%" x2="100%" y2="100%">
      <stop offset="0%" stop-color="#FCD34D"/>
      <stop offset="100%" stop-color="#FBBF24"/>
    </linearGradient>
    <linearGradient id="kg" x1="0%" y1="0%" x2="100%" y2="100%">
      <stop offset="0%" stop-color="#1F2937"/>
      <stop offset="100%" stop-color="#374151"/>
    </linearGradient>
  </defs>

  <!-- Honeycomb cluster -->
  <!-- Center -->
  <polygon points="256,168 304,196 304,252 256,280 208,252 208,196" fill="url(#g1)" stroke="#B45309" stroke-width="2"/>
  <!-- Top -->
  <polygon points="256,56 304,84 304,140 256,168 208,140 208,84" fill="url(#g2)" stroke="#B45309" stroke-width="2"/>
  <!-- Top-right -->
  <polygon points="340,112 388,140 388,196 340,224 292,196 292,140" fill="url(#g3)" stroke="#B45309" stroke-width="2"/>
  <!-- Bottom-right -->
  <polygon points="340,224 388,252 388,308 340,336 292,308 292,252" fill="url(#g1)" stroke="#B45309" stroke-width="2"/>
  <!-- Bottom -->
  <polygon points="256,280 304,308 304,364 256,392 208,364 208,308" fill="url(#g3)" stroke="#B45309" stroke-width="2"/>
  <!-- Bottom-left -->
  <polygon points="172,224 220,252 220,308 172,336 124,308 124,252" fill="url(#g2)" stroke="#B45309" stroke-width="2"/>
  <!-- Top-left -->
  <polygon points="172,112 220,140 220,196 172,224 124,196 124,140" fill="url(#g1)" stroke="#B45309" stroke-width="2"/>

  <!-- Key overlaid on honeycomb -->
  <circle cx="256" cy="206" r="44" fill="url(#kg)" stroke="#111827" stroke-width="3"/>
  <circle cx="256" cy="206" r="17" fill="url(#g1)" stroke="#B45309" stroke-width="2"/>
  <rect x="249" y="250" width="14" height="130" rx="4" fill="url(#kg)" stroke="#111827" stroke-width="3"/>
  <rect x="263" y="330" width="28" height="12" rx="3" fill="url(#kg)" stroke="#111827" stroke-width="2"/>
  <rect x="263" y="355" width="20" height="12" rx="3" fill="url(#kg)" stroke="#111827" stroke-width="2"/>

  <!-- Circuit dots -->
  <circle cx="208" cy="196" r="4" fill="#FEF3C7" opacity="0.8"/>
  <circle cx="304" cy="196" r="4" fill="#FEF3C7" opacity="0.8"/>
  <circle cx="256" cy="56" r="4" fill="#FEF3C7" opacity="0.8"/>
  <circle cx="124" cy="252" r="4" fill="#FEF3C7" opacity="0.8"/>
  <circle cx="388" cy="252" r="4" fill="#FEF3C7" opacity="0.8"/>
</svg>
